<?xml version="1.0" encoding="utf-8"?>
<!-- Generator: Adobe Illustrator 24.0.0, SVG Export Plug-In . SVG Version: 6.00 Build 0)  -->
<svg version="1.0" id="Layer_1" xmlns="http://www.w3.org/2000/svg" xmlns:xlink="http://www.w3.org/1999/xlink" x="0px" y="0px"
	 viewBox="0 0 1600 800" style="enable-background:new 0 0 1600 800;" xml:space="preserve">
<style type="text/css">
	.st0{filter:url(#Adobe_OpacityMaskFilter);}
	.st1{fill:url(#SVGID_2_);}
	.st2{mask:url(#SVGID_1_);}
	.st3{fill:none;stroke:#FFFFFF;stroke-miterlimit:10;}
</style>
<defs>
	<filter id="Adobe_OpacityMaskFilter" filterUnits="userSpaceOnUse" x="-56.7" y="1016.8" width="1957.3" height="889.5">
		<feColorMatrix  type="matrix" values="1 0 0 0 0  0 1 0 0 0  0 0 1 0 0  0 0 0 1 0"/>
	</filter>
</defs>
<mask maskUnits="userSpaceOnUse" x="-56.7" y="1016.8" width="1957.3" height="889.5" id="SVGID_1_">
	<g class="st0">
		<linearGradient id="SVGID_2_" gradientUnits="userSpaceOnUse" x1="-28.5" y1="1381.4438" x2="1647.2999" y2="1381.4438">
			<stop  offset="0.6369" style="stop-color:#FFFFFF"/>
			<stop  offset="1" style="stop-color:#000000"/>
		</linearGradient>
		<rect x="-28.5" y="979.4" class="st1" width="1675.8" height="804.1"/>
	</g>
</mask>
<g class="st2">
	<g>
		<path class="st3" d="M-28.5,1525.1c213,3,222,3,285-16s127-58,154-79s109-82,164-142s176-217,203-237s90-51,157-22
			s100,123,104,136s65,178,74,198c16,35.6,43.5,89.2,95,146c52.1,57.5,104.2,89.5,138,110c58.5,35.4,107.6,53.4,148,68
			c60.2,21.7,113.3,34.3,154,42"/>
		<path class="st3" d="M-30.3,1534.5c205.7,5.4,222.1,8.3,288.2-9.4c64-17.1,128.5-54.6,157.2-76.4c8.8-6.7,22.2-17,38.2-29.8
			c36.9-30,87.8-73.1,126.6-115.5c57.7-63,178.3-216.2,210.3-232.4c26.7-18,86.9-46.2,150.7-18.1c64.1,28.3,95.9,117.6,100.7,130.9
			c5.1,14,63.6,170.2,72.8,190c16.1,34.3,43.6,87.1,95.5,143.2c51.1,55.2,102.6,86.6,137.6,107.2c57.4,33.6,106.1,51.3,147.1,65.4
			c59,20.4,111.5,32.5,152.7,39.5"/>
		<path class="st3" d="M-32,1544c198.3,7.7,222.1,13.5,291.5-2.8c65-15.3,130-51.2,160.4-73.9c9.3-6.9,22.9-17.3,38.6-30.4
			c37.2-30.9,87.6-75.1,127.1-118.3c60.5-66.1,180.6-215.3,217.7-227.8c26.3-15.9,83.8-41.3,144.5-14.1
			c61.1,27.6,91.9,112.2,97.4,125.7c6.2,15.1,62.1,162.5,71.6,182c16.1,32.9,43.7,85.1,96,140.5c50.1,53,100.9,83.8,137.2,104.3
			c56.3,31.9,104.6,49.1,146.1,62.8c57.8,19,109.7,30.7,151.4,37"/>
		<path class="st3" d="M-33.8,1553.4c191,10.1,222.1,18.7,294.7,3.8c66-13.5,131.4-47.8,163.6-71.3c9.8-7.1,23.5-17.7,39-30.9
			c37.4-31.9,87.3-77.1,127.6-121.1c63.2-69.1,182.9-214.5,225-223.2c26-13.9,80.7-36.6,138.2-10.2c58.3,26.8,87.9,106.9,94.1,120.6
			c7.3,16.1,60.6,154.7,70.5,174c16,31.5,43.8,83.1,96.6,137.7c49,50.7,99.3,80.9,136.8,101.5c55.2,30.2,103,47,145.2,60.2
			c56.6,17.7,107.8,28.8,150,34.6"/>
		<path class="st3" d="M-35.5,1562.9c183.7,12.5,222.1,23.8,297.9,10.4c66.9-11.8,132.9-44.4,166.8-68.7
			c10.3-7.4,24.1-18.1,39.4-31.5c37.6-33,87.1-79.2,128-123.9c66-72.2,185.3-213.6,232.4-218.6c25.6-11.9,77.6-31.8,131.9-6.2
			c55.4,26,83.9,101.5,90.8,115.4c8.5,17.1,59.2,147,69.3,166.1c16,30.2,43.9,81.1,97.1,134.9c48,48.5,97.7,78.1,136.5,98.6
			c54,28.5,101.4,44.8,144.2,57.6c55.4,16.5,106,27,148.7,32.1"/>
		<path class="st3" d="M-37.3,1572.3c176.3,14.8,222.1,28.9,301.1,17.1c67.8-10.2,134.4-41,170-66.1c10.8-7.6,24.7-18.4,39.8-32
			c37.7-34,86.9-81.2,128.5-126.7c68.7-75.2,187.5-212.8,239.7-214c25.3-9.8,74.5-27,125.7-2.3c52.4,25.3,79.9,96.1,87.5,110.3
			c9.6,18.1,57.7,139.2,68.1,158.1c15.9,28.8,44,79.1,97.6,132.2c46.9,46.4,96,75.3,136.1,95.8c52.8,26.9,99.9,42.7,143.3,55
			c54.1,15.3,104.2,25.1,147.4,29.6"/>
		<path class="st3" d="M-39,1581.7c169,17.2,222.1,33.9,304.4,23.7c68.7-8.6,135.9-37.6,173.2-63.6c11.3-7.9,25.4-18.8,40.2-32.5
			c37.9-35.1,86.7-83.2,129-129.5c71.5-78.3,189.8-212,247-209.4c24.9-7.8,71.4-22.1,119.4,1.6c49.5,24.6,76,90.7,84.2,105.1
			c10.8,19.1,56.2,131.5,66.9,150.1c15.8,27.5,44,77.1,98.1,129.4c45.7,44.2,94.3,72.5,135.7,92.9c51.5,25.4,98.3,40.6,142.3,52.4
			c52.9,14.1,102.4,23.3,146.1,27.1"/>
		<path class="st3" d="M-40.8,1591.2c161.7,19.6,222,38.9,307.6,30.3c69.7-7,137.3-34.2,176.4-61c11.8-8.1,26-19.2,40.6-33.1
			c38.1-36.1,86.5-85.3,129.4-132.3c74.2-81.3,192.1-211.1,254.3-204.8c24.6-5.8,68.4-17.3,113.1,5.6c46.6,23.8,72.1,85.2,80.9,100
			c12.1,20.1,54.7,123.7,65.7,142.1c15.7,26.1,44,75.1,98.7,126.6c44.6,42,92.6,69.8,135.3,90.1c50.2,23.9,96.7,38.6,141.4,49.8
			c51.6,12.9,100.5,21.5,144.7,24.7"/>
		<path class="st3" d="M-42.5,1600.6c154.3,22,222,43.8,310.8,36.9c70.6-5.5,138.8-30.8,179.6-58.4c12.4-8.4,26.6-19.6,41-33.6
			c38.2-37.2,86.3-87.3,129.9-135.1c77-84.4,194.4-210.3,261.7-200.2c24.3-3.7,65.3-12.5,106.9,9.5c43.7,23.1,68.1,79.8,77.6,94.9
			c13.3,21.1,53.2,116,64.5,134.1c15.6,24.8,44,73.2,99.2,123.8c43.4,39.9,90.9,67,134.9,87.2c48.9,22.4,95.1,36.5,140.5,47.2
			c50.3,11.8,98.7,19.6,143.4,22.2"/>
		<path class="st3" d="M-44.3,1610c147,24.3,221.9,48.7,314.1,43.5c71.5-4,140.3-27.5,182.8-55.9c12.9-8.6,27.2-20,41.3-34.2
			c38.4-38.3,86.1-89.3,130.4-137.9c79.7-87.4,196.7-209.4,269-195.6c23.9-1.7,62.2-7.6,100.6,13.4c40.8,22.4,64.2,74.4,74.3,89.7
			c14.5,22.1,51.6,108.3,63.4,126.1c15.4,23.5,44,71.3,99.7,121.1c42.3,37.8,89.1,64.4,134.5,84.4c47.6,21,93.5,34.5,139.5,44.6
			c49,10.7,96.9,17.8,142.1,19.7"/>
		<path class="st3" d="M-46,1619.5c139.6,26.7,221.9,53.5,317.3,50.1c72.4-2.6,141.8-24.1,186-53.3c13.4-8.8,27.8-20.4,41.7-34.7
			c38.5-39.4,85.8-91.4,130.8-140.7c82.4-90.5,199-208.6,276.3-191c23.6,0.3,59.1-2.8,94.3,17.4c37.9,21.7,60.3,68.9,71,84.6
			c15.8,23,50.1,100.6,62.2,118.2c15.3,22.2,44,69.4,100.2,118.3c41,35.7,87.4,61.7,134.2,81.6c46.3,19.6,91.9,32.5,138.6,41.9
			c47.7,9.6,95,16,140.8,17.2"/>
		<path class="st3" d="M-47.8,1628.9c132.3,29.1,221.8,58.3,320.5,56.7c73.3-1.1,143.3-20.6,189.3-50.7
			c13.9-9.1,28.4-20.8,42.1-35.2c38.6-40.5,85.6-93.4,131.3-143.5c85.2-93.5,201.3-207.8,283.7-186.4c23.2,2.4,55.9,2,88,21.3
			c35,21,56.4,63.5,67.7,79.4c17,24,48.5,92.9,61,110.2c15.1,20.9,43.9,67.5,100.7,115.5c39.8,33.6,85.6,59.1,133.8,78.7
			c45,18.3,90.3,30.6,137.6,39.3c46.4,8.6,93.2,14.1,139.4,14.8"/>
		<path class="st3" d="M-49.5,1638.4c125,31.4,221.8,65.2,323.7,63.3c74.2-1.4,144.7-17.3,192.4-48.1c14.4-9.3,28.9-21.2,42.5-35.8
			c38.8-41.6,85.4-95.4,131.8-146.3c87.9-96.6,203.6-206.9,291-181.8c22.9,4.4,52.8,6.9,81.8,25.3c32,20.3,52.5,58.1,64.4,74.3
			c18.3,24.9,46.9,85.2,59.8,102.2c14.8,19.6,43.8,65.7,101.3,112.8c38.6,31.6,83.8,56.6,133.4,75.9c43.6,17,88.7,28.7,136.7,36.7
			c45.1,7.6,91.4,12.3,138.1,12.3"/>
		<path class="st3" d="M-51.3,1647.8c117.6,33.8,221.8,67.7,327,70c75.1,1.6,146.2-13.9,195.6-45.6c14.9-9.6,29.5-21.6,42.9-36.3
			c38.9-42.7,85.2-97.5,132.2-149.1c90.7-99.6,205.9-206.1,298.4-177.3c22.6,6.4,49.7,11.8,75.5,29.2c29.1,19.6,48.6,52.6,61.1,69.1
			c19.6,25.9,45.3,77.5,58.6,94.2c14.6,18.4,43.7,63.9,101.8,110c37.3,29.6,82,54.1,133,73c42.3,15.7,87,26.8,135.8,34.1
			c43.8,6.6,89.6,10.4,136.8,9.8"/>
		<path class="st3" d="M-53,1657.2c110.3,36.2,221.8,72.3,330.2,76.6c76,3,147.7-10.5,198.8-43c15.4-9.8,30.1-22,43.3-36.9
			c39-43.8,85-99.5,132.7-151.9c93.4-102.7,208.2-205.2,305.7-172.7c22.2,8.5,46.6,16.7,69.2,33.1c26.1,19,44.7,47.1,57.8,64
			c20.9,26.8,43.7,69.8,57.4,86.2c14.4,17.1,43.5,62.2,102.3,107.2c36.1,27.6,80.2,51.6,132.6,70.2c40.9,14.5,85.4,25,134.8,31.5
			c42.5,5.7,87.7,8.6,135.5,7.3"/>
		<path class="st3" d="M-54.8,1666.7c103,38.5,221.7,77,333.4,83.2c77,4.3,149.2-7.1,202.1-40.4c15.9-10.1,30.7-22.5,43.7-37.4
			c39-45,84.8-101.5,133.2-154.7c96.2-105.7,210.5-204.4,313-168.1c21.9,10.5,43.4,21.6,63,37.1c23.2,18.3,40.8,41.7,54.5,58.9
			c22.2,27.7,42.1,62.2,56.3,78.2c14.1,15.9,43.3,60.5,102.8,104.5c34.8,25.6,78.4,49.3,132.2,67.3c39.5,13.3,83.8,23.2,133.9,28.9
			c41.2,4.7,85.9,6.8,134.1,4.9"/>
		<path class="st3" d="M-56.5,1676.1c180,77,468,153,586,14s293-381,454-321c91,53,132,132,163,165s138.9,213.7,501,194.9"/>
	</g>
	<g>
		<path class="st3" d="M461,1413.6c112-79,152-149,291-128s198.1,63,256,128c58,65,171.5,214.5,292.5,262.5s348,61.7,473,65.9"/>
		<path class="st3" d="M461,1412.6c93.3-65.8,158.6-151.6,285.4-137.1s187.4,43.1,260.2,111.3c30.6,28.6,67.9,78.5,103.9,119.7
			c58.6,67.1,127.1,128.5,186.5,156.3c127.3,59.7,356.2,72.8,476.1,74.4"/>
		<path class="st3" d="M461,1411.6c74.7-52.7,165.2-154.1,279.8-146.1s176.3,23.2,264.4,94.7c35.9,29.1,74.7,85.3,105.1,122.6
			c62,76,132.7,139.8,183.2,167.1c133.8,72.3,364.4,83.8,479.3,82.9"/>
		<path class="st3" d="M461,1410.6c56-39.5,171.8-156.7,274.3-155.2s165.1,3.4,268.5,78c41.1,29.7,81.2,92.5,106.3,125.4
			c65.1,85.3,138,151.9,179.9,177.8c139.9,86.4,372.7,94.8,482.5,91.4"/>
		<path class="st3" d="M461,1409.5c37.3-26.3,178.3-159.3,268.7-164.3s153.7-16.4,272.7,61.3c46.3,30.2,87.3,99.9,107.6,128.3
			c67.6,95.1,142.8,164.7,176.6,188.5c145.1,102.2,380.9,105.8,485.7,100"/>
		<path class="st3" d="M461,1408.5c18.7-13.2,184.9-161.8,263.1-173.3s142.2-36.2,276.8,44.7c51.4,30.9,93.3,107.4,108.8,131.1
			c68.9,105.6,147.3,178,173.3,199.3c148,120.9,389.2,116.8,488.8,108.5"/>
		<path class="st3" d="M461,1407.5c0,0,191.5-164.4,257.5-182.4s127-49,281,28c55,34,99,115,110,134c67.9,117.3,151.3,191.5,170,210
			c146,144.1,397.4,127.8,492,117"/>
	</g>
	<path class="st3" d="M803.5,1344.5c0,0,80,1.6,199,128.6s249.5,233.7,428.3,253.9c178.8,20.2,273.7,25.8,273.7,25.8"/>
	<g>
		<path class="st3" d="M522,1752.7c0,0,148.5-126.6,290.5-101.6s270.5,114.8,304.7,132.4"/>
	</g>
	<path class="st3" d="M730.5,1437.1c0,0,90-50,209,48s241,208,391,242s524.2,103.5,524.2,103.5"/>
	<path class="st3" d="M653.5,1546.1c0,0,127-96,244-20s200,165,384,220s619,126,619,126"/>
	<g>
		<path class="st3" d="M527.5,1693.1c0,0,177-151,320-110s160,99,267,144s421.4,134.5,740.2,178.7"/>
	</g>
</g>
</svg>
